<svg xmlns="http://www.w3.org/2000/svg" version="1.1" viewBox="12.5 15.63 50 46.67">
<title>cog</title>
<path fill="#9092b0" d="M57.167 32.625c2.333-0.833 4.833 0.833 5.167 3.167 0.167 1 0.167 2.167 0.167 3.167s0 2.167-0.5 3.167c-0.167 2-1.833 3.5-3.833 3.5-0.5 0-0.833 0-1.333-0.167-1.167-0.5-2.333 0.167-2.833 1.167s-1.167 2.167-1.833 3.167c-0.667 1-0.5 2.333 0.333 3s1.333 1.833 1.333 3c0 1.167-0.5 2.333-1.5 3-1.667 1.333-3.5 2.333-5.333 3.167-0.5 0.167-1 0.333-1.5 0.333-1.833 0-3.5-1.333-3.833-3.167-0.167-1.167-1.333-2-2.5-1.833s-2.5 0.167-3.667 0c-1.333-0.167-2.333 0.667-2.5 1.833-0.333 1.833-2 3.167-3.833 3.167-0.5 0-1-0.167-1.5-0.333-1.833-0.833-3.667-1.833-5.333-3.167-0.833-0.667-1.5-1.833-1.5-3s0.5-2.333 1.333-3c0.833-0.667 1-2 0.333-3s-1.333-2-1.833-3.167c-0.5-1.167-1.833-1.667-2.833-1.333-2.333 0.833-4.833-0.833-5.167-3.167-0.167-1-0.167-2.167-0.167-3.167s0-2.167 0.167-3.167c0.167-2 1.833-3.5 3.833-3.5 0.5 0 0.833 0 1.333 0.167 1.167 0.5 2.333-0.167 2.833-1.167s1.167-2.167 1.833-3.167c0.833-1 0.667-2.167-0.333-3-0.833-0.667-1.333-1.833-1.333-3s0.667-2.333 1.5-3c1.667-1.333 3.5-2.333 5.5-3.167 0.5-0.167 1-0.333 1.5-0.333 1.833 0 3.5 1.333 3.833 3.167 0.167 1.167 1.333 2 2.5 1.833s2.5-0.167 3.667 0c1.333 0.167 2.333-0.667 2.5-1.833 0.333-1.833 2-3.167 3.833-3.167 0.396 0 0.791 0.104 1.27 0.23 0.126 0.033 0.258 0.068 0.397 0.103 1.833 0.833 3.667 1.833 5.333 3.167 0.833 0.667 1.5 1.833 1.5 3s-0.5 2.333-1.333 3.167c-0.833 0.667-1 2-0.333 3v0c0.667 1 1.333 2 1.833 3.167 0.5 1 1.833 1.5 2.833 1.167zM37.502 47.292c4.667 0 8.333-3.667 8.333-8.333s-3.667-8.333-8.333-8.333c-4.667 0-8.333 3.667-8.333 8.333s3.667 8.333 8.333 8.333z"/>
</svg>